# xmcd
#
# Track frame offsets:
#	150
#	13279
#	33030
#	53304
#	73002
#	86164
#	107439
#	124100
#	145796
#	159121
#
# Disc length: 2400 seconds
#
# Revision: 0
# Processed by: cddbd v1.5.2PL0 Copyright (c) Steve Scherf et al.
# Submitted via: audiograbber 1.83.01
#
DISCID=73095e0a
DTITLE=Ed Huey - Talkin' Back to the Night
DYEAR=2004
DGENRE=Blues
TTITLE0=Jelly Roll Baker
TTITLE1=I Used to be a Gambler
TTITLE2=Mercury Blues
TTITLE3=Wanna Be Your Chauffeur
TTITLE4=Cakewalk Into Town
TTITLE5=Moonshine
TTITLE6=Talkin' Back to the Night
TTITLE7=Brownsville
TTITLE8=61 Highway
TTITLE9=Raining Out to Sea
EXTD=
EXTT0=
EXTT1=
EXTT2=
EXTT3=
EXTT4=
EXTT5=
EXTT6=
EXTT7=
EXTT8=
EXTT9=
PLAYORDER=
